<svg width="32" height="32" viewBox="0 0 32 32" fill="none" xmlns="http://www.w3.org/2000/svg">
<path d="M5.17209 28C4.94028 28 4.71367 27.9313 4.52092 27.8026C4.32816 27.6738 4.17793 27.4908 4.08922 27.2766C4.0005 27.0625 3.97729 26.8268 4.02253 26.5995C4.06776 26.3721 4.17941 26.1633 4.34334 25.9994L25.9995 4.34328C26.2192 4.12348 26.5174 4 26.8282 4C27.139 4 27.4371 4.12348 27.6569 4.34328C27.8767 4.56307 28.0002 4.86118 28.0002 5.17202C28.0002 5.48286 27.8767 5.78097 27.6569 6.00077L6.00083 27.6569C5.8921 27.7658 5.76291 27.8522 5.62069 27.9111C5.47847 27.97 5.32602 28.0002 5.17209 28Z" fill="currentColor"/>
<path d="M26.8282 28C26.6743 28.0002 26.5218 27.97 26.3796 27.9111C26.2374 27.8522 26.1082 27.7658 25.9995 27.6569L4.34334 6.00077C4.12355 5.78097 4.00006 5.48286 4.00006 5.17202C4.00006 4.86118 4.12355 4.56307 4.34334 4.34328C4.56314 4.12348 4.86125 4 5.17209 4C5.48293 4 5.78103 4.12348 6.00083 4.34328L27.6569 25.9994C27.8209 26.1633 27.9325 26.3721 27.9778 26.5995C28.023 26.8268 27.9998 27.0625 27.9111 27.2766C27.8224 27.4908 27.6721 27.6738 27.4794 27.8026C27.2866 27.9313 27.06 28 26.8282 28Z" fill="currentColor"/>
</svg>
